<mxfile host="app.diagrams.net" modified="2020-05-03T08:33:08.901Z" agent="5.0 (Windows NT 10.0; Win64; x64) AppleWebKit/537.36 (KHTML, like Gecko) Chrome/80.0.3987.116 Safari/537.36 OPR/67.0.3575.130" etag="QSgZAC127HiIQxdlsvOX" version="13.0.4" type="github">
  <diagram id="TSgzO08xvkyAbLL3pmPg" name="Page-1">
    <mxGraphModel dx="659" dy="783" grid="1" gridSize="10" guides="1" tooltips="1" connect="1" arrows="1" fold="1" page="1" pageScale="1" pageWidth="827" pageHeight="1169" math="0" shadow="0">
      <root>
        <mxCell id="0" />
        <mxCell id="1" parent="0" />
        <mxCell id="jRCfXozxXcHgCGn9272L-28" value="" style="rounded=0;whiteSpace=wrap;html=1;" vertex="1" parent="1">
          <mxGeometry x="114" y="87.5" width="110" height="65" as="geometry" />
        </mxCell>
        <mxCell id="XHEEDVPZoeM0KxmqWSNA-1" value="Donation" style="rounded=0;whiteSpace=wrap;html=1;" parent="1" vertex="1">
          <mxGeometry x="124.5" y="95" width="89" height="50" as="geometry" />
        </mxCell>
        <mxCell id="XHEEDVPZoeM0KxmqWSNA-2" value="Food" style="rounded=0;whiteSpace=wrap;html=1;" parent="1" vertex="1">
          <mxGeometry x="334" y="480" width="120" height="60" as="geometry" />
        </mxCell>
        <mxCell id="XHEEDVPZoeM0KxmqWSNA-3" value="Species" style="rounded=0;whiteSpace=wrap;html=1;" parent="1" vertex="1">
          <mxGeometry x="70" y="730" width="120" height="60" as="geometry" />
        </mxCell>
        <mxCell id="XHEEDVPZoeM0KxmqWSNA-4" value="Animal" style="rounded=0;whiteSpace=wrap;html=1;" parent="1" vertex="1">
          <mxGeometry x="70" y="480" width="120" height="60" as="geometry" />
        </mxCell>
        <mxCell id="XHEEDVPZoeM0KxmqWSNA-5" value="Donor" style="rounded=0;whiteSpace=wrap;html=1;" parent="1" vertex="1">
          <mxGeometry x="109" y="240" width="120" height="60" as="geometry" />
        </mxCell>
        <mxCell id="XHEEDVPZoeM0KxmqWSNA-6" value="Volunteer" style="rounded=0;whiteSpace=wrap;html=1;" parent="1" vertex="1">
          <mxGeometry x="645" y="210" width="120" height="60" as="geometry" />
        </mxCell>
        <mxCell id="XHEEDVPZoeM0KxmqWSNA-7" value="Manager" style="rounded=0;whiteSpace=wrap;html=1;" parent="1" vertex="1">
          <mxGeometry x="645" y="390" width="120" height="60" as="geometry" />
        </mxCell>
        <mxCell id="XHEEDVPZoeM0KxmqWSNA-8" value="Shelter" style="rounded=0;whiteSpace=wrap;html=1;" parent="1" vertex="1">
          <mxGeometry x="354" y="90" width="120" height="60" as="geometry" />
        </mxCell>
        <mxCell id="XHEEDVPZoeM0KxmqWSNA-9" value="Vet" style="rounded=0;whiteSpace=wrap;html=1;" parent="1" vertex="1">
          <mxGeometry x="645" y="15" width="120" height="60" as="geometry" />
        </mxCell>
        <mxCell id="XHEEDVPZoeM0KxmqWSNA-17" value="" style="endArrow=none;html=1;entryX=0;entryY=0.5;entryDx=0;entryDy=0;exitX=1;exitY=0.5;exitDx=0;exitDy=0;" parent="1" source="k1qqFFfvDT_mNqjIPexY-18" target="XHEEDVPZoeM0KxmqWSNA-9" edge="1">
          <mxGeometry width="50" height="50" relative="1" as="geometry">
            <mxPoint x="590" y="160" as="sourcePoint" />
            <mxPoint x="626" y="79.5" as="targetPoint" />
          </mxGeometry>
        </mxCell>
        <mxCell id="XHEEDVPZoeM0KxmqWSNA-18" value="" style="endArrow=none;html=1;exitX=1;exitY=1;exitDx=0;exitDy=0;entryX=0;entryY=0.5;entryDx=0;entryDy=0;" parent="1" source="XHEEDVPZoeM0KxmqWSNA-8" target="XHEEDVPZoeM0KxmqWSNA-21" edge="1">
          <mxGeometry width="50" height="50" relative="1" as="geometry">
            <mxPoint x="480" y="130" as="sourcePoint" />
            <mxPoint x="516" y="130" as="targetPoint" />
          </mxGeometry>
        </mxCell>
        <mxCell id="XHEEDVPZoeM0KxmqWSNA-20" value="" style="endArrow=none;html=1;entryX=0;entryY=0.5;entryDx=0;entryDy=0;exitX=1;exitY=0.5;exitDx=0;exitDy=0;" parent="1" source="XHEEDVPZoeM0KxmqWSNA-21" target="XHEEDVPZoeM0KxmqWSNA-6" edge="1">
          <mxGeometry width="50" height="50" relative="1" as="geometry">
            <mxPoint x="590" y="160" as="sourcePoint" />
            <mxPoint x="590" y="150" as="targetPoint" />
            <Array as="points">
              <mxPoint x="610" y="160" />
              <mxPoint x="610" y="240" />
            </Array>
          </mxGeometry>
        </mxCell>
        <mxCell id="XHEEDVPZoeM0KxmqWSNA-21" value="works at" style="rhombus;whiteSpace=wrap;html=1;" parent="1" vertex="1">
          <mxGeometry x="510" y="135" width="80" height="50" as="geometry" />
        </mxCell>
        <mxCell id="XHEEDVPZoeM0KxmqWSNA-22" value="goes to" style="rhombus;whiteSpace=wrap;html=1;" parent="1" vertex="1">
          <mxGeometry x="259" y="95" width="80" height="50" as="geometry" />
        </mxCell>
        <mxCell id="XHEEDVPZoeM0KxmqWSNA-23" value="" style="endArrow=none;html=1;exitX=0.033;exitY=1;exitDx=0;exitDy=0;entryX=0;entryY=0.5;entryDx=0;entryDy=0;exitPerimeter=0;" parent="1" source="AML0hCze_9C6tWHu_Mf7-60" target="XHEEDVPZoeM0KxmqWSNA-22" edge="1">
          <mxGeometry width="50" height="50" relative="1" as="geometry">
            <mxPoint x="198" y="80" as="sourcePoint" />
            <mxPoint x="384" y="260" as="targetPoint" />
          </mxGeometry>
        </mxCell>
        <mxCell id="XHEEDVPZoeM0KxmqWSNA-24" value="" style="endArrow=none;html=1;exitX=1;exitY=0.5;exitDx=0;exitDy=0;entryX=0;entryY=0.5;entryDx=0;entryDy=0;" parent="1" source="XHEEDVPZoeM0KxmqWSNA-22" target="XHEEDVPZoeM0KxmqWSNA-8" edge="1">
          <mxGeometry width="50" height="50" relative="1" as="geometry">
            <mxPoint x="314" y="79.5" as="sourcePoint" />
            <mxPoint x="354" y="80" as="targetPoint" />
          </mxGeometry>
        </mxCell>
        <mxCell id="XHEEDVPZoeM0KxmqWSNA-25" value="" style="rhombus;whiteSpace=wrap;html=1;" parent="1" vertex="1">
          <mxGeometry x="129" y="170" width="80" height="50" as="geometry" />
        </mxCell>
        <mxCell id="XHEEDVPZoeM0KxmqWSNA-26" value="" style="endArrow=none;html=1;entryX=0.5;entryY=0;entryDx=0;entryDy=0;" parent="1" target="XHEEDVPZoeM0KxmqWSNA-25" edge="1">
          <mxGeometry width="50" height="50" relative="1" as="geometry">
            <mxPoint x="169" y="150" as="sourcePoint" />
            <mxPoint x="248" y="345" as="targetPoint" />
          </mxGeometry>
        </mxCell>
        <mxCell id="XHEEDVPZoeM0KxmqWSNA-27" value="" style="endArrow=none;html=1;exitX=0.5;exitY=1;exitDx=0;exitDy=0;entryX=0.5;entryY=0;entryDx=0;entryDy=0;" parent="1" source="XHEEDVPZoeM0KxmqWSNA-25" target="XHEEDVPZoeM0KxmqWSNA-5" edge="1">
          <mxGeometry width="50" height="50" relative="1" as="geometry">
            <mxPoint x="178" y="164.5" as="sourcePoint" />
            <mxPoint x="218" y="165" as="targetPoint" />
          </mxGeometry>
        </mxCell>
        <mxCell id="XHEEDVPZoeM0KxmqWSNA-28" value="lives in" style="rhombus;whiteSpace=wrap;html=1;" parent="1" vertex="1">
          <mxGeometry x="90" y="390" width="80" height="50" as="geometry" />
        </mxCell>
        <mxCell id="XHEEDVPZoeM0KxmqWSNA-29" value="" style="endArrow=none;html=1;exitX=0.5;exitY=0;exitDx=0;exitDy=0;entryX=0.5;entryY=1;entryDx=0;entryDy=0;" parent="1" source="XHEEDVPZoeM0KxmqWSNA-4" target="XHEEDVPZoeM0KxmqWSNA-28" edge="1">
          <mxGeometry width="50" height="50" relative="1" as="geometry">
            <mxPoint x="414" y="275" as="sourcePoint" />
            <mxPoint x="600" y="455" as="targetPoint" />
          </mxGeometry>
        </mxCell>
        <mxCell id="XHEEDVPZoeM0KxmqWSNA-30" value="" style="endArrow=none;html=1;exitX=0.5;exitY=0;exitDx=0;exitDy=0;entryX=0;entryY=1;entryDx=0;entryDy=0;" parent="1" source="XHEEDVPZoeM0KxmqWSNA-28" target="XHEEDVPZoeM0KxmqWSNA-8" edge="1">
          <mxGeometry width="50" height="50" relative="1" as="geometry">
            <mxPoint x="530" y="274.5" as="sourcePoint" />
            <mxPoint x="570" y="275" as="targetPoint" />
            <Array as="points">
              <mxPoint x="130" y="370" />
              <mxPoint x="350" y="370" />
            </Array>
          </mxGeometry>
        </mxCell>
        <mxCell id="XHEEDVPZoeM0KxmqWSNA-31" value="" style="endArrow=none;html=1;exitX=1;exitY=0.5;exitDx=0;exitDy=0;entryX=0;entryY=0.5;entryDx=0;entryDy=0;" parent="1" source="XHEEDVPZoeM0KxmqWSNA-21" target="XHEEDVPZoeM0KxmqWSNA-7" edge="1">
          <mxGeometry width="50" height="50" relative="1" as="geometry">
            <mxPoint x="540" y="285" as="sourcePoint" />
            <mxPoint x="580" y="285" as="targetPoint" />
            <Array as="points">
              <mxPoint x="610" y="160" />
              <mxPoint x="610" y="420" />
            </Array>
          </mxGeometry>
        </mxCell>
        <mxCell id="XHEEDVPZoeM0KxmqWSNA-32" value="has sup" style="rhombus;whiteSpace=wrap;html=1;" parent="1" vertex="1">
          <mxGeometry x="87" y="820" width="80" height="40" as="geometry" />
        </mxCell>
        <mxCell id="XHEEDVPZoeM0KxmqWSNA-33" value="" style="endArrow=none;html=1;exitX=0;exitY=0.5;exitDx=0;exitDy=0;entryX=0;entryY=0.5;entryDx=0;entryDy=0;" parent="1" source="XHEEDVPZoeM0KxmqWSNA-3" target="XHEEDVPZoeM0KxmqWSNA-32" edge="1">
          <mxGeometry width="50" height="50" relative="1" as="geometry">
            <mxPoint x="270" y="365" as="sourcePoint" />
            <mxPoint x="456" y="545" as="targetPoint" />
            <Array as="points">
              <mxPoint x="60" y="760" />
              <mxPoint x="60" y="840" />
            </Array>
          </mxGeometry>
        </mxCell>
        <mxCell id="XHEEDVPZoeM0KxmqWSNA-34" value="" style="endArrow=none;html=1;exitX=1;exitY=0.5;exitDx=0;exitDy=0;entryX=1;entryY=0.5;entryDx=0;entryDy=0;" parent="1" source="XHEEDVPZoeM0KxmqWSNA-32" target="XHEEDVPZoeM0KxmqWSNA-3" edge="1">
          <mxGeometry width="50" height="50" relative="1" as="geometry">
            <mxPoint x="386" y="364.5" as="sourcePoint" />
            <mxPoint x="426" y="365" as="targetPoint" />
            <Array as="points">
              <mxPoint x="200" y="840" />
              <mxPoint x="200" y="760" />
              <mxPoint x="190" y="760" />
            </Array>
          </mxGeometry>
        </mxCell>
        <mxCell id="AML0hCze_9C6tWHu_Mf7-2" value="belongs to" style="rhombus;whiteSpace=wrap;html=1;" parent="1" vertex="1">
          <mxGeometry x="87" y="610" width="86" height="50" as="geometry" />
        </mxCell>
        <mxCell id="AML0hCze_9C6tWHu_Mf7-3" value="" style="endArrow=none;html=1;exitX=0.5;exitY=0;exitDx=0;exitDy=0;entryX=0.5;entryY=1;entryDx=0;entryDy=0;" parent="1" source="XHEEDVPZoeM0KxmqWSNA-3" target="AML0hCze_9C6tWHu_Mf7-2" edge="1">
          <mxGeometry width="50" height="50" relative="1" as="geometry">
            <mxPoint x="100" y="280" as="sourcePoint" />
            <mxPoint x="450" y="385" as="targetPoint" />
          </mxGeometry>
        </mxCell>
        <mxCell id="AML0hCze_9C6tWHu_Mf7-4" value="" style="endArrow=none;html=1;exitX=0.5;exitY=0;exitDx=0;exitDy=0;entryX=0.5;entryY=1;entryDx=0;entryDy=0;" parent="1" source="AML0hCze_9C6tWHu_Mf7-2" target="XHEEDVPZoeM0KxmqWSNA-4" edge="1">
          <mxGeometry width="50" height="50" relative="1" as="geometry">
            <mxPoint x="524" y="184.5" as="sourcePoint" />
            <mxPoint x="304" y="260" as="targetPoint" />
          </mxGeometry>
        </mxCell>
        <mxCell id="AML0hCze_9C6tWHu_Mf7-6" value="Taker" style="rounded=0;whiteSpace=wrap;html=1;" parent="1" vertex="1">
          <mxGeometry x="250" y="870" width="120" height="60" as="geometry" />
        </mxCell>
        <mxCell id="AML0hCze_9C6tWHu_Mf7-7" value="Address" style="rounded=0;whiteSpace=wrap;html=1;" parent="1" vertex="1">
          <mxGeometry x="360" y="1050" width="120" height="60" as="geometry" />
        </mxCell>
        <mxCell id="AML0hCze_9C6tWHu_Mf7-8" value="Supplier" style="rounded=0;whiteSpace=wrap;html=1;" parent="1" vertex="1">
          <mxGeometry x="630" y="480" width="120" height="60" as="geometry" />
        </mxCell>
        <mxCell id="AML0hCze_9C6tWHu_Mf7-9" value="brings" style="rhombus;whiteSpace=wrap;html=1;" parent="1" vertex="1">
          <mxGeometry x="514" y="485" width="80" height="50" as="geometry" />
        </mxCell>
        <mxCell id="AML0hCze_9C6tWHu_Mf7-11" value="" style="endArrow=none;html=1;exitX=0;exitY=0.5;exitDx=0;exitDy=0;entryX=1;entryY=0.5;entryDx=0;entryDy=0;" parent="1" source="AML0hCze_9C6tWHu_Mf7-9" target="XHEEDVPZoeM0KxmqWSNA-2" edge="1">
          <mxGeometry width="50" height="50" relative="1" as="geometry">
            <mxPoint x="536" y="344.5" as="sourcePoint" />
            <mxPoint x="310" y="420" as="targetPoint" />
          </mxGeometry>
        </mxCell>
        <mxCell id="AML0hCze_9C6tWHu_Mf7-12" value="eats" style="rhombus;whiteSpace=wrap;html=1;" parent="1" vertex="1">
          <mxGeometry x="220" y="485" width="80" height="50" as="geometry" />
        </mxCell>
        <mxCell id="AML0hCze_9C6tWHu_Mf7-13" value="" style="endArrow=none;html=1;exitX=0;exitY=0.5;exitDx=0;exitDy=0;entryX=1;entryY=0.5;entryDx=0;entryDy=0;" parent="1" source="XHEEDVPZoeM0KxmqWSNA-2" target="AML0hCze_9C6tWHu_Mf7-12" edge="1">
          <mxGeometry width="50" height="50" relative="1" as="geometry">
            <mxPoint x="280" y="385" as="sourcePoint" />
            <mxPoint x="606" y="355" as="targetPoint" />
          </mxGeometry>
        </mxCell>
        <mxCell id="AML0hCze_9C6tWHu_Mf7-14" value="" style="endArrow=none;html=1;exitX=0;exitY=0.5;exitDx=0;exitDy=0;entryX=1;entryY=0.5;entryDx=0;entryDy=0;" parent="1" source="AML0hCze_9C6tWHu_Mf7-12" target="XHEEDVPZoeM0KxmqWSNA-4" edge="1">
          <mxGeometry width="50" height="50" relative="1" as="geometry">
            <mxPoint x="536" y="174.5" as="sourcePoint" />
            <mxPoint x="280" y="270" as="targetPoint" />
          </mxGeometry>
        </mxCell>
        <mxCell id="AML0hCze_9C6tWHu_Mf7-15" value="" style="endArrow=none;html=1;exitX=1;exitY=0.5;exitDx=0;exitDy=0;entryX=0;entryY=0.5;entryDx=0;entryDy=0;" parent="1" source="AML0hCze_9C6tWHu_Mf7-9" target="AML0hCze_9C6tWHu_Mf7-8" edge="1">
          <mxGeometry width="50" height="50" relative="1" as="geometry">
            <mxPoint x="404" y="420" as="sourcePoint" />
            <mxPoint x="350" y="420" as="targetPoint" />
          </mxGeometry>
        </mxCell>
        <mxCell id="AML0hCze_9C6tWHu_Mf7-16" value="delivers to" style="rhombus;whiteSpace=wrap;html=1;" parent="1" vertex="1">
          <mxGeometry x="505" y="410" width="80" height="50" as="geometry" />
        </mxCell>
        <mxCell id="AML0hCze_9C6tWHu_Mf7-17" value="" style="endArrow=none;html=1;exitX=0.5;exitY=0;exitDx=0;exitDy=0;entryX=0.5;entryY=1;entryDx=0;entryDy=0;" parent="1" source="AML0hCze_9C6tWHu_Mf7-8" target="AML0hCze_9C6tWHu_Mf7-16" edge="1">
          <mxGeometry width="50" height="50" relative="1" as="geometry">
            <mxPoint x="434" y="290" as="sourcePoint" />
            <mxPoint x="760" y="265" as="targetPoint" />
            <Array as="points">
              <mxPoint x="690" y="470" />
              <mxPoint x="545" y="470" />
            </Array>
          </mxGeometry>
        </mxCell>
        <mxCell id="AML0hCze_9C6tWHu_Mf7-18" value="" style="endArrow=none;html=1;exitX=0.5;exitY=0;exitDx=0;exitDy=0;entryX=0.5;entryY=1;entryDx=0;entryDy=0;" parent="1" source="AML0hCze_9C6tWHu_Mf7-16" target="XHEEDVPZoeM0KxmqWSNA-8" edge="1">
          <mxGeometry width="50" height="50" relative="1" as="geometry">
            <mxPoint x="690" y="84.5" as="sourcePoint" />
            <mxPoint x="434" y="180" as="targetPoint" />
            <Array as="points">
              <mxPoint x="545" y="390" />
              <mxPoint x="414" y="390" />
            </Array>
          </mxGeometry>
        </mxCell>
        <mxCell id="AML0hCze_9C6tWHu_Mf7-19" value="taken by" style="rhombus;whiteSpace=wrap;html=1;" parent="1" vertex="1">
          <mxGeometry x="270" y="790" width="80" height="50" as="geometry" />
        </mxCell>
        <mxCell id="AML0hCze_9C6tWHu_Mf7-20" value="" style="endArrow=none;html=1;exitX=0.5;exitY=0;exitDx=0;exitDy=0;entryX=0.5;entryY=1;entryDx=0;entryDy=0;" parent="1" source="AML0hCze_9C6tWHu_Mf7-6" target="AML0hCze_9C6tWHu_Mf7-19" edge="1">
          <mxGeometry width="50" height="50" relative="1" as="geometry">
            <mxPoint x="290" y="435" as="sourcePoint" />
            <mxPoint x="616" y="410" as="targetPoint" />
          </mxGeometry>
        </mxCell>
        <mxCell id="AML0hCze_9C6tWHu_Mf7-21" value="" style="endArrow=none;html=1;exitX=0.5;exitY=0;exitDx=0;exitDy=0;entryX=1;entryY=1;entryDx=0;entryDy=0;" parent="1" source="AML0hCze_9C6tWHu_Mf7-19" target="XHEEDVPZoeM0KxmqWSNA-4" edge="1">
          <mxGeometry width="50" height="50" relative="1" as="geometry">
            <mxPoint x="546" y="229.5" as="sourcePoint" />
            <mxPoint x="290" y="325" as="targetPoint" />
          </mxGeometry>
        </mxCell>
        <mxCell id="AML0hCze_9C6tWHu_Mf7-22" value="" style="endArrow=none;html=1;entryX=0;entryY=0.5;entryDx=0;entryDy=0;exitX=0;exitY=0;exitDx=0;exitDy=0;" parent="1" source="AML0hCze_9C6tWHu_Mf7-27" target="XHEEDVPZoeM0KxmqWSNA-5" edge="1">
          <mxGeometry width="50" height="50" relative="1" as="geometry">
            <mxPoint x="350" y="680" as="sourcePoint" />
            <mxPoint x="330" y="350" as="targetPoint" />
            <Array as="points">
              <mxPoint x="20" y="980" />
              <mxPoint x="20" y="270" />
            </Array>
          </mxGeometry>
        </mxCell>
        <mxCell id="AML0hCze_9C6tWHu_Mf7-25" value="" style="endArrow=none;html=1;exitX=0.388;exitY=0.12;exitDx=0;exitDy=0;entryX=0.5;entryY=1;entryDx=0;entryDy=0;exitPerimeter=0;" parent="1" source="AML0hCze_9C6tWHu_Mf7-27" target="AML0hCze_9C6tWHu_Mf7-6" edge="1">
          <mxGeometry width="50" height="50" relative="1" as="geometry">
            <mxPoint x="460" y="585" as="sourcePoint" />
            <mxPoint x="460" y="555" as="targetPoint" />
            <Array as="points">
              <mxPoint x="310" y="986" />
            </Array>
          </mxGeometry>
        </mxCell>
        <mxCell id="AML0hCze_9C6tWHu_Mf7-26" value="" style="endArrow=none;html=1;exitX=1;exitY=0;exitDx=0;exitDy=0;entryX=1;entryY=0.5;entryDx=0;entryDy=0;" parent="1" source="AML0hCze_9C6tWHu_Mf7-27" target="XHEEDVPZoeM0KxmqWSNA-6" edge="1">
          <mxGeometry width="50" height="50" relative="1" as="geometry">
            <mxPoint x="460" y="505" as="sourcePoint" />
            <mxPoint x="460" y="475" as="targetPoint" />
            <Array as="points">
              <mxPoint x="810" y="990" />
              <mxPoint x="810" y="240" />
            </Array>
          </mxGeometry>
        </mxCell>
        <mxCell id="AML0hCze_9C6tWHu_Mf7-27" value="has" style="rhombus;whiteSpace=wrap;html=1;" parent="1" vertex="1">
          <mxGeometry x="380" y="980" width="80" height="50" as="geometry" />
        </mxCell>
        <mxCell id="AML0hCze_9C6tWHu_Mf7-28" value="" style="endArrow=none;html=1;exitX=0.5;exitY=0;exitDx=0;exitDy=0;entryX=0.5;entryY=1;entryDx=0;entryDy=0;" parent="1" source="AML0hCze_9C6tWHu_Mf7-7" target="AML0hCze_9C6tWHu_Mf7-27" edge="1">
          <mxGeometry width="50" height="50" relative="1" as="geometry">
            <mxPoint x="430" y="710" as="sourcePoint" />
            <mxPoint x="756" y="685" as="targetPoint" />
          </mxGeometry>
        </mxCell>
        <mxCell id="AML0hCze_9C6tWHu_Mf7-30" value="" style="endArrow=none;html=1;exitX=0.863;exitY=0.34;exitDx=0;exitDy=0;entryX=1;entryY=0.5;entryDx=0;entryDy=0;exitPerimeter=0;" parent="1" source="AML0hCze_9C6tWHu_Mf7-27" target="XHEEDVPZoeM0KxmqWSNA-9" edge="1">
          <mxGeometry width="50" height="50" relative="1" as="geometry">
            <mxPoint x="470" y="515" as="sourcePoint" />
            <mxPoint x="470" y="485" as="targetPoint" />
            <Array as="points">
              <mxPoint x="820" y="997" />
              <mxPoint x="820" y="45" />
            </Array>
          </mxGeometry>
        </mxCell>
        <mxCell id="AML0hCze_9C6tWHu_Mf7-31" value="" style="endArrow=none;html=1;exitX=0.638;exitY=0.16;exitDx=0;exitDy=0;exitPerimeter=0;entryX=1;entryY=0.5;entryDx=0;entryDy=0;" parent="1" source="AML0hCze_9C6tWHu_Mf7-27" edge="1" target="XHEEDVPZoeM0KxmqWSNA-7">
          <mxGeometry width="50" height="50" relative="1" as="geometry">
            <mxPoint x="480" y="525" as="sourcePoint" />
            <mxPoint x="750" y="240" as="targetPoint" />
            <Array as="points">
              <mxPoint x="790" y="980" />
              <mxPoint x="790" y="420" />
            </Array>
          </mxGeometry>
        </mxCell>
        <mxCell id="AML0hCze_9C6tWHu_Mf7-32" value="" style="endArrow=none;html=1;exitX=0.125;exitY=0.38;exitDx=0;exitDy=0;entryX=0.5;entryY=0;entryDx=0;entryDy=0;exitPerimeter=0;" parent="1" source="AML0hCze_9C6tWHu_Mf7-27" target="XHEEDVPZoeM0KxmqWSNA-8" edge="1">
          <mxGeometry width="50" height="50" relative="1" as="geometry">
            <mxPoint x="490" y="535" as="sourcePoint" />
            <mxPoint x="490" y="505" as="targetPoint" />
            <Array as="points">
              <mxPoint x="10" y="990" />
              <mxPoint x="10" y="30" />
              <mxPoint x="414" y="30" />
            </Array>
          </mxGeometry>
        </mxCell>
        <mxCell id="AML0hCze_9C6tWHu_Mf7-33" value="" style="endArrow=none;html=1;exitX=0.5;exitY=0;exitDx=0;exitDy=0;entryX=1;entryY=0.5;entryDx=0;entryDy=0;" parent="1" source="AML0hCze_9C6tWHu_Mf7-27" target="AML0hCze_9C6tWHu_Mf7-8" edge="1">
          <mxGeometry width="50" height="50" relative="1" as="geometry">
            <mxPoint x="500" y="545" as="sourcePoint" />
            <mxPoint x="500" y="515" as="targetPoint" />
            <Array as="points">
              <mxPoint x="770" y="970" />
              <mxPoint x="770" y="510" />
            </Array>
          </mxGeometry>
        </mxCell>
        <mxCell id="AML0hCze_9C6tWHu_Mf7-34" value="1" style="text;html=1;align=center;verticalAlign=middle;resizable=0;points=[];autosize=1;" parent="1" vertex="1">
          <mxGeometry x="420" y="1030" width="20" height="20" as="geometry" />
        </mxCell>
        <mxCell id="AML0hCze_9C6tWHu_Mf7-39" value="1" style="text;html=1;align=center;verticalAlign=middle;resizable=0;points=[];autosize=1;" parent="1" vertex="1">
          <mxGeometry x="290" y="930" width="20" height="20" as="geometry" />
        </mxCell>
        <mxCell id="AML0hCze_9C6tWHu_Mf7-40" value="1" style="text;html=1;align=center;verticalAlign=middle;resizable=0;points=[];autosize=1;" parent="1" vertex="1">
          <mxGeometry x="770" y="420" width="20" height="20" as="geometry" />
        </mxCell>
        <mxCell id="AML0hCze_9C6tWHu_Mf7-41" value="1" style="text;html=1;align=center;verticalAlign=middle;resizable=0;points=[];autosize=1;" parent="1" vertex="1">
          <mxGeometry x="770" y="240" width="20" height="20" as="geometry" />
        </mxCell>
        <mxCell id="AML0hCze_9C6tWHu_Mf7-42" value="1" style="text;html=1;align=center;verticalAlign=middle;resizable=0;points=[];autosize=1;" parent="1" vertex="1">
          <mxGeometry x="770" y="20" width="20" height="20" as="geometry" />
        </mxCell>
        <mxCell id="AML0hCze_9C6tWHu_Mf7-43" value="1" style="text;html=1;align=center;verticalAlign=middle;resizable=0;points=[];autosize=1;" parent="1" vertex="1">
          <mxGeometry x="394" y="70" width="20" height="20" as="geometry" />
        </mxCell>
        <mxCell id="AML0hCze_9C6tWHu_Mf7-44" value="1" style="text;html=1;align=center;verticalAlign=middle;resizable=0;points=[];autosize=1;" parent="1" vertex="1">
          <mxGeometry x="85" y="250" width="20" height="20" as="geometry" />
        </mxCell>
        <mxCell id="AML0hCze_9C6tWHu_Mf7-46" value="1" style="text;html=1;align=center;verticalAlign=middle;resizable=0;points=[];autosize=1;" parent="1" vertex="1">
          <mxGeometry x="750" y="510" width="20" height="20" as="geometry" />
        </mxCell>
        <mxCell id="AML0hCze_9C6tWHu_Mf7-48" value="m" style="text;html=1;align=center;verticalAlign=middle;resizable=0;points=[];autosize=1;" parent="1" vertex="1">
          <mxGeometry x="140" y="150" width="30" height="20" as="geometry" />
        </mxCell>
        <mxCell id="AML0hCze_9C6tWHu_Mf7-49" value="1" style="text;html=1;align=center;verticalAlign=middle;resizable=0;points=[];autosize=1;" parent="1" vertex="1">
          <mxGeometry x="147" y="220" width="20" height="20" as="geometry" />
        </mxCell>
        <mxCell id="AML0hCze_9C6tWHu_Mf7-50" value="mc" style="text;html=1;align=center;verticalAlign=middle;resizable=0;points=[];autosize=1;" parent="1" vertex="1">
          <mxGeometry x="160" y="820" width="30" height="20" as="geometry" />
        </mxCell>
        <mxCell id="AML0hCze_9C6tWHu_Mf7-51" value="1" style="text;html=1;align=center;verticalAlign=middle;resizable=0;points=[];autosize=1;" parent="1" vertex="1">
          <mxGeometry x="60" y="820" width="20" height="20" as="geometry" />
        </mxCell>
        <mxCell id="AML0hCze_9C6tWHu_Mf7-52" value="m" style="text;html=1;align=center;verticalAlign=middle;resizable=0;points=[];autosize=1;" parent="1" vertex="1">
          <mxGeometry x="173" y="550" width="30" height="20" as="geometry" />
        </mxCell>
        <mxCell id="AML0hCze_9C6tWHu_Mf7-53" value="1" style="text;html=1;align=center;verticalAlign=middle;resizable=0;points=[];autosize=1;" parent="1" vertex="1">
          <mxGeometry x="294" y="850" width="20" height="20" as="geometry" />
        </mxCell>
        <mxCell id="AML0hCze_9C6tWHu_Mf7-54" value="mc" style="text;html=1;align=center;verticalAlign=middle;resizable=0;points=[];autosize=1;" parent="1" vertex="1">
          <mxGeometry x="100" y="540" width="30" height="20" as="geometry" />
        </mxCell>
        <mxCell id="AML0hCze_9C6tWHu_Mf7-55" value="1" style="text;html=1;align=center;verticalAlign=middle;resizable=0;points=[];autosize=1;" parent="1" vertex="1">
          <mxGeometry x="130" y="710" width="20" height="20" as="geometry" />
        </mxCell>
        <mxCell id="AML0hCze_9C6tWHu_Mf7-56" value="mc" style="text;html=1;align=center;verticalAlign=middle;resizable=0;points=[];autosize=1;" parent="1" vertex="1">
          <mxGeometry x="190" y="490" width="30" height="20" as="geometry" />
        </mxCell>
        <mxCell id="AML0hCze_9C6tWHu_Mf7-57" value="m" style="text;html=1;align=center;verticalAlign=middle;resizable=0;points=[];autosize=1;" parent="1" vertex="1">
          <mxGeometry x="304" y="490" width="30" height="20" as="geometry" />
        </mxCell>
        <mxCell id="AML0hCze_9C6tWHu_Mf7-58" value="mc" style="text;html=1;align=center;verticalAlign=middle;resizable=0;points=[];autosize=1;" parent="1" vertex="1">
          <mxGeometry x="454" y="490" width="30" height="20" as="geometry" />
        </mxCell>
        <mxCell id="AML0hCze_9C6tWHu_Mf7-59" value="mc" style="text;html=1;align=center;verticalAlign=middle;resizable=0;points=[];autosize=1;" parent="1" vertex="1">
          <mxGeometry x="600" y="490" width="30" height="20" as="geometry" />
        </mxCell>
        <mxCell id="AML0hCze_9C6tWHu_Mf7-60" value="mc" style="text;html=1;align=center;verticalAlign=middle;resizable=0;points=[];autosize=1;" parent="1" vertex="1">
          <mxGeometry x="229" y="100" width="30" height="20" as="geometry" />
        </mxCell>
        <mxCell id="AML0hCze_9C6tWHu_Mf7-61" value="1" style="text;html=1;align=center;verticalAlign=middle;resizable=0;points=[];autosize=1;" parent="1" vertex="1">
          <mxGeometry x="334" y="100" width="20" height="20" as="geometry" />
        </mxCell>
        <mxCell id="AML0hCze_9C6tWHu_Mf7-62" value="1" style="text;html=1;align=center;verticalAlign=middle;resizable=0;points=[];autosize=1;" parent="1" vertex="1">
          <mxGeometry x="350" y="160" width="20" height="20" as="geometry" />
        </mxCell>
        <mxCell id="AML0hCze_9C6tWHu_Mf7-63" value="m" style="text;html=1;align=center;verticalAlign=middle;resizable=0;points=[];autosize=1;" parent="1" vertex="1">
          <mxGeometry x="125" y="460" width="30" height="20" as="geometry" />
        </mxCell>
        <mxCell id="AML0hCze_9C6tWHu_Mf7-64" value="m" style="text;html=1;align=center;verticalAlign=middle;resizable=0;points=[];autosize=1;" parent="1" vertex="1">
          <mxGeometry x="690" y="460" width="30" height="20" as="geometry" />
        </mxCell>
        <mxCell id="AML0hCze_9C6tWHu_Mf7-65" value="mc" style="text;html=1;align=center;verticalAlign=middle;resizable=0;points=[];autosize=1;" parent="1" vertex="1">
          <mxGeometry x="410" y="160" width="30" height="20" as="geometry" />
        </mxCell>
        <mxCell id="9xRu9j4wo8HbfEdH_AAH-1" value="first_name" style="ellipse;whiteSpace=wrap;html=1;" parent="1" vertex="1">
          <mxGeometry x="150" y="900" width="70" height="20" as="geometry" />
        </mxCell>
        <mxCell id="9xRu9j4wo8HbfEdH_AAH-2" value="" style="ellipse;whiteSpace=wrap;html=1;" parent="1" vertex="1">
          <mxGeometry x="100" y="1300" width="90" height="30" as="geometry" />
        </mxCell>
        <mxCell id="9xRu9j4wo8HbfEdH_AAH-3" value="Number" style="ellipse;whiteSpace=wrap;html=1;" parent="1" vertex="1">
          <mxGeometry x="259" y="1110" width="90" height="30" as="geometry" />
        </mxCell>
        <mxCell id="9xRu9j4wo8HbfEdH_AAH-4" value="Street" style="ellipse;whiteSpace=wrap;html=1;" parent="1" vertex="1">
          <mxGeometry x="334" y="1130" width="90" height="30" as="geometry" />
        </mxCell>
        <mxCell id="9xRu9j4wo8HbfEdH_AAH-5" value="Country" style="ellipse;whiteSpace=wrap;html=1;" parent="1" vertex="1">
          <mxGeometry x="424" y="1130" width="90" height="30" as="geometry" />
        </mxCell>
        <mxCell id="9xRu9j4wo8HbfEdH_AAH-6" value="&lt;u&gt;ID&lt;/u&gt;" style="ellipse;whiteSpace=wrap;html=1;" parent="1" vertex="1">
          <mxGeometry x="500" y="1080" width="90" height="30" as="geometry" />
        </mxCell>
        <mxCell id="9xRu9j4wo8HbfEdH_AAH-7" value="ZIP Code" style="ellipse;whiteSpace=wrap;html=1;" parent="1" vertex="1">
          <mxGeometry x="500" y="1110" width="90" height="30" as="geometry" />
        </mxCell>
        <mxCell id="9xRu9j4wo8HbfEdH_AAH-8" value="&lt;u&gt;ID&lt;/u&gt;" style="ellipse;whiteSpace=wrap;html=1;" parent="1" vertex="1">
          <mxGeometry x="180" y="880" width="35" height="20" as="geometry" />
        </mxCell>
        <mxCell id="9xRu9j4wo8HbfEdH_AAH-9" value="&lt;u&gt;ID&lt;/u&gt;" style="ellipse;whiteSpace=wrap;html=1;" parent="1" vertex="1">
          <mxGeometry x="349" y="555" width="90" height="30" as="geometry" />
        </mxCell>
        <mxCell id="9xRu9j4wo8HbfEdH_AAH-12" value="" style="endArrow=none;html=1;exitX=1;exitY=0;exitDx=0;exitDy=0;entryX=0;entryY=1;entryDx=0;entryDy=0;" parent="1" source="9xRu9j4wo8HbfEdH_AAH-3" target="AML0hCze_9C6tWHu_Mf7-7" edge="1">
          <mxGeometry width="50" height="50" relative="1" as="geometry">
            <mxPoint x="390" y="1070" as="sourcePoint" />
            <mxPoint x="440" y="1020" as="targetPoint" />
          </mxGeometry>
        </mxCell>
        <mxCell id="9xRu9j4wo8HbfEdH_AAH-13" value="" style="endArrow=none;html=1;exitX=0.5;exitY=0;exitDx=0;exitDy=0;entryX=0.5;entryY=1;entryDx=0;entryDy=0;" parent="1" source="9xRu9j4wo8HbfEdH_AAH-4" target="AML0hCze_9C6tWHu_Mf7-7" edge="1">
          <mxGeometry width="50" height="50" relative="1" as="geometry">
            <mxPoint x="345.81980515339455" y="1124.3933982822018" as="sourcePoint" />
            <mxPoint x="370" y="1120" as="targetPoint" />
          </mxGeometry>
        </mxCell>
        <mxCell id="9xRu9j4wo8HbfEdH_AAH-14" value="" style="endArrow=none;html=1;exitX=0.5;exitY=0;exitDx=0;exitDy=0;entryX=0.5;entryY=1;entryDx=0;entryDy=0;" parent="1" source="9xRu9j4wo8HbfEdH_AAH-5" target="AML0hCze_9C6tWHu_Mf7-7" edge="1">
          <mxGeometry width="50" height="50" relative="1" as="geometry">
            <mxPoint x="355.81980515339455" y="1134.3933982822018" as="sourcePoint" />
            <mxPoint x="380" y="1130" as="targetPoint" />
          </mxGeometry>
        </mxCell>
        <mxCell id="9xRu9j4wo8HbfEdH_AAH-15" value="" style="endArrow=none;html=1;exitX=0;exitY=0.5;exitDx=0;exitDy=0;entryX=1;entryY=1;entryDx=0;entryDy=0;" parent="1" source="9xRu9j4wo8HbfEdH_AAH-7" target="AML0hCze_9C6tWHu_Mf7-7" edge="1">
          <mxGeometry width="50" height="50" relative="1" as="geometry">
            <mxPoint x="365.81980515339455" y="1144.3933982822018" as="sourcePoint" />
            <mxPoint x="390" y="1140" as="targetPoint" />
          </mxGeometry>
        </mxCell>
        <mxCell id="9xRu9j4wo8HbfEdH_AAH-16" value="" style="endArrow=none;html=1;exitX=1;exitY=0.75;exitDx=0;exitDy=0;entryX=0;entryY=0.5;entryDx=0;entryDy=0;" parent="1" source="AML0hCze_9C6tWHu_Mf7-7" target="9xRu9j4wo8HbfEdH_AAH-6" edge="1">
          <mxGeometry width="50" height="50" relative="1" as="geometry">
            <mxPoint x="375.81980515339455" y="1154.3933982822018" as="sourcePoint" />
            <mxPoint x="400" y="1150" as="targetPoint" />
          </mxGeometry>
        </mxCell>
        <mxCell id="9xRu9j4wo8HbfEdH_AAH-17" value="" style="endArrow=none;html=1;exitX=1;exitY=0.5;exitDx=0;exitDy=0;entryX=0;entryY=0.5;entryDx=0;entryDy=0;" parent="1" source="9xRu9j4wo8HbfEdH_AAH-8" target="AML0hCze_9C6tWHu_Mf7-6" edge="1">
          <mxGeometry width="50" height="50" relative="1" as="geometry">
            <mxPoint x="370" y="1210" as="sourcePoint" />
            <mxPoint x="430" y="1210" as="targetPoint" />
          </mxGeometry>
        </mxCell>
        <mxCell id="9xRu9j4wo8HbfEdH_AAH-18" value="" style="endArrow=none;html=1;exitX=1;exitY=0.5;exitDx=0;exitDy=0;entryX=0;entryY=0.5;entryDx=0;entryDy=0;" parent="1" source="9xRu9j4wo8HbfEdH_AAH-1" target="AML0hCze_9C6tWHu_Mf7-6" edge="1">
          <mxGeometry width="50" height="50" relative="1" as="geometry">
            <mxPoint x="380" y="1220" as="sourcePoint" />
            <mxPoint x="440" y="1220" as="targetPoint" />
          </mxGeometry>
        </mxCell>
        <mxCell id="9xRu9j4wo8HbfEdH_AAH-19" value="" style="endArrow=none;html=1;exitX=1;exitY=0.5;exitDx=0;exitDy=0;entryX=0;entryY=0.5;entryDx=0;entryDy=0;" parent="1" edge="1" target="jRCfXozxXcHgCGn9272L-41" source="XHEEDVPZoeM0KxmqWSNA-5">
          <mxGeometry width="50" height="50" relative="1" as="geometry">
            <mxPoint x="250" y="319" as="sourcePoint" />
            <mxPoint x="310" y="319" as="targetPoint" />
          </mxGeometry>
        </mxCell>
        <mxCell id="9xRu9j4wo8HbfEdH_AAH-20" value="" style="endArrow=none;html=1;" parent="1" edge="1">
          <mxGeometry width="50" height="50" relative="1" as="geometry">
            <mxPoint x="400" y="1240" as="sourcePoint" />
            <mxPoint x="460" y="1240" as="targetPoint" />
          </mxGeometry>
        </mxCell>
        <mxCell id="9xRu9j4wo8HbfEdH_AAH-21" value="" style="endArrow=none;html=1;" parent="1" edge="1">
          <mxGeometry width="50" height="50" relative="1" as="geometry">
            <mxPoint x="410" y="1250" as="sourcePoint" />
            <mxPoint x="470" y="1250" as="targetPoint" />
          </mxGeometry>
        </mxCell>
        <mxCell id="9xRu9j4wo8HbfEdH_AAH-22" value="" style="endArrow=none;html=1;" parent="1" edge="1">
          <mxGeometry width="50" height="50" relative="1" as="geometry">
            <mxPoint x="420" y="1260" as="sourcePoint" />
            <mxPoint x="480" y="1260" as="targetPoint" />
          </mxGeometry>
        </mxCell>
        <mxCell id="9xRu9j4wo8HbfEdH_AAH-23" value="" style="endArrow=none;html=1;" parent="1" edge="1">
          <mxGeometry width="50" height="50" relative="1" as="geometry">
            <mxPoint x="430" y="1270" as="sourcePoint" />
            <mxPoint x="490" y="1270" as="targetPoint" />
          </mxGeometry>
        </mxCell>
        <mxCell id="k1qqFFfvDT_mNqjIPexY-1" value="name" style="ellipse;whiteSpace=wrap;html=1;" parent="1" vertex="1">
          <mxGeometry x="45" y="680" width="45" height="20" as="geometry" />
        </mxCell>
        <mxCell id="k1qqFFfvDT_mNqjIPexY-2" value="&lt;u&gt;ID&lt;/u&gt;" style="ellipse;whiteSpace=wrap;html=1;" parent="1" vertex="1">
          <mxGeometry x="50" y="700" width="35" height="20" as="geometry" />
        </mxCell>
        <mxCell id="k1qqFFfvDT_mNqjIPexY-5" value="" style="endArrow=none;html=1;exitX=0.25;exitY=0;exitDx=0;exitDy=0;entryX=1;entryY=0.5;entryDx=0;entryDy=0;" parent="1" source="XHEEDVPZoeM0KxmqWSNA-3" target="k1qqFFfvDT_mNqjIPexY-1" edge="1">
          <mxGeometry width="50" height="50" relative="1" as="geometry">
            <mxPoint x="300" y="880" as="sourcePoint" />
            <mxPoint x="300" y="860" as="targetPoint" />
          </mxGeometry>
        </mxCell>
        <mxCell id="k1qqFFfvDT_mNqjIPexY-6" value="" style="endArrow=none;html=1;entryX=1;entryY=0.5;entryDx=0;entryDy=0;" parent="1" target="k1qqFFfvDT_mNqjIPexY-2" edge="1">
          <mxGeometry width="50" height="50" relative="1" as="geometry">
            <mxPoint x="100" y="730" as="sourcePoint" />
            <mxPoint x="310" y="870" as="targetPoint" />
          </mxGeometry>
        </mxCell>
        <mxCell id="k1qqFFfvDT_mNqjIPexY-7" value="name" style="ellipse;whiteSpace=wrap;html=1;" parent="1" vertex="1">
          <mxGeometry x="25" y="480" width="45" height="20" as="geometry" />
        </mxCell>
        <mxCell id="k1qqFFfvDT_mNqjIPexY-8" value="&lt;u&gt;ID&lt;/u&gt;" style="ellipse;whiteSpace=wrap;html=1;" parent="1" vertex="1">
          <mxGeometry x="35" y="460" width="35" height="20" as="geometry" />
        </mxCell>
        <mxCell id="k1qqFFfvDT_mNqjIPexY-9" value="gender" style="ellipse;whiteSpace=wrap;html=1;" parent="1" vertex="1">
          <mxGeometry x="25" y="500" width="45" height="20" as="geometry" />
        </mxCell>
        <mxCell id="k1qqFFfvDT_mNqjIPexY-12" value="brought&lt;br&gt;in" style="ellipse;whiteSpace=wrap;html=1;" parent="1" vertex="1">
          <mxGeometry x="25" y="520" width="45" height="30" as="geometry" />
        </mxCell>
        <mxCell id="k1qqFFfvDT_mNqjIPexY-15" value="taken at" style="ellipse;whiteSpace=wrap;html=1;" parent="1" vertex="1">
          <mxGeometry x="27.5" y="550" width="45" height="30" as="geometry" />
        </mxCell>
        <mxCell id="k1qqFFfvDT_mNqjIPexY-18" value="works at" style="rhombus;whiteSpace=wrap;html=1;" parent="1" vertex="1">
          <mxGeometry x="540" y="20" width="80" height="50" as="geometry" />
        </mxCell>
        <mxCell id="k1qqFFfvDT_mNqjIPexY-19" value="" style="endArrow=none;html=1;exitX=1;exitY=0.5;exitDx=0;exitDy=0;entryX=0;entryY=0.5;entryDx=0;entryDy=0;" parent="1" source="XHEEDVPZoeM0KxmqWSNA-8" target="k1qqFFfvDT_mNqjIPexY-18" edge="1">
          <mxGeometry width="50" height="50" relative="1" as="geometry">
            <mxPoint x="484" y="120" as="sourcePoint" />
            <mxPoint x="520" y="170" as="targetPoint" />
            <Array as="points">
              <mxPoint x="530" y="120" />
              <mxPoint x="530" y="45" />
            </Array>
          </mxGeometry>
        </mxCell>
        <mxCell id="jRCfXozxXcHgCGn9272L-4" value="last_name" style="ellipse;whiteSpace=wrap;html=1;" vertex="1" parent="1">
          <mxGeometry x="153" y="920" width="70" height="20" as="geometry" />
        </mxCell>
        <mxCell id="jRCfXozxXcHgCGn9272L-5" value="" style="endArrow=none;html=1;exitX=1;exitY=0.5;exitDx=0;exitDy=0;entryX=0;entryY=0.5;entryDx=0;entryDy=0;" edge="1" parent="1" source="jRCfXozxXcHgCGn9272L-4" target="AML0hCze_9C6tWHu_Mf7-6">
          <mxGeometry width="50" height="50" relative="1" as="geometry">
            <mxPoint x="230" y="920" as="sourcePoint" />
            <mxPoint x="260" y="910" as="targetPoint" />
          </mxGeometry>
        </mxCell>
        <mxCell id="jRCfXozxXcHgCGn9272L-6" value="description" style="ellipse;whiteSpace=wrap;html=1;" vertex="1" parent="1">
          <mxGeometry x="349" y="585" width="90" height="30" as="geometry" />
        </mxCell>
        <mxCell id="jRCfXozxXcHgCGn9272L-7" value="" style="endArrow=none;html=1;exitX=0.5;exitY=0;exitDx=0;exitDy=0;entryX=0.5;entryY=1;entryDx=0;entryDy=0;" edge="1" parent="1" source="9xRu9j4wo8HbfEdH_AAH-9" target="XHEEDVPZoeM0KxmqWSNA-2">
          <mxGeometry width="50" height="50" relative="1" as="geometry">
            <mxPoint x="225" y="900" as="sourcePoint" />
            <mxPoint x="260" y="910" as="targetPoint" />
          </mxGeometry>
        </mxCell>
        <mxCell id="jRCfXozxXcHgCGn9272L-8" value="&lt;u&gt;ID&lt;/u&gt;" style="ellipse;whiteSpace=wrap;html=1;" vertex="1" parent="1">
          <mxGeometry x="430" y="10" width="80" height="20" as="geometry" />
        </mxCell>
        <mxCell id="jRCfXozxXcHgCGn9272L-9" value="description" style="ellipse;whiteSpace=wrap;html=1;" vertex="1" parent="1">
          <mxGeometry x="430" y="30" width="80" height="20" as="geometry" />
        </mxCell>
        <mxCell id="jRCfXozxXcHgCGn9272L-10" value="founded_at" style="ellipse;whiteSpace=wrap;html=1;" vertex="1" parent="1">
          <mxGeometry x="434" y="50" width="80" height="20" as="geometry" />
        </mxCell>
        <mxCell id="jRCfXozxXcHgCGn9272L-11" value="" style="endArrow=none;html=1;exitX=0.75;exitY=0;exitDx=0;exitDy=0;entryX=0.5;entryY=1;entryDx=0;entryDy=0;" edge="1" parent="1" source="XHEEDVPZoeM0KxmqWSNA-8" target="jRCfXozxXcHgCGn9272L-10">
          <mxGeometry width="50" height="50" relative="1" as="geometry">
            <mxPoint x="404" y="565" as="sourcePoint" />
            <mxPoint x="404" y="550" as="targetPoint" />
          </mxGeometry>
        </mxCell>
        <mxCell id="jRCfXozxXcHgCGn9272L-12" value="1" style="text;html=1;align=center;verticalAlign=middle;resizable=0;points=[];autosize=1;" vertex="1" parent="1">
          <mxGeometry x="474" y="150" width="20" height="20" as="geometry" />
        </mxCell>
        <mxCell id="jRCfXozxXcHgCGn9272L-13" value="1" style="text;html=1;align=center;verticalAlign=middle;resizable=0;points=[];autosize=1;" vertex="1" parent="1">
          <mxGeometry x="620" y="20" width="20" height="20" as="geometry" />
        </mxCell>
        <mxCell id="jRCfXozxXcHgCGn9272L-14" value="mc" style="text;html=1;align=center;verticalAlign=middle;resizable=0;points=[];autosize=1;" vertex="1" parent="1">
          <mxGeometry x="615" y="220" width="30" height="20" as="geometry" />
        </mxCell>
        <mxCell id="jRCfXozxXcHgCGn9272L-15" value="1" style="text;html=1;align=center;verticalAlign=middle;resizable=0;points=[];autosize=1;" vertex="1" parent="1">
          <mxGeometry x="620" y="400" width="20" height="20" as="geometry" />
        </mxCell>
        <mxCell id="jRCfXozxXcHgCGn9272L-20" value="birthday" style="ellipse;whiteSpace=wrap;html=1;" vertex="1" parent="1">
          <mxGeometry x="660" y="360" width="90" height="20" as="geometry" />
        </mxCell>
        <mxCell id="jRCfXozxXcHgCGn9272L-21" value="&lt;u&gt;ID&lt;/u&gt;" style="ellipse;whiteSpace=wrap;html=1;" vertex="1" parent="1">
          <mxGeometry x="660" y="280" width="90" height="20" as="geometry" />
        </mxCell>
        <mxCell id="jRCfXozxXcHgCGn9272L-22" value="first name" style="ellipse;whiteSpace=wrap;html=1;" vertex="1" parent="1">
          <mxGeometry x="660" y="300" width="90" height="20" as="geometry" />
        </mxCell>
        <mxCell id="jRCfXozxXcHgCGn9272L-23" value="last name" style="ellipse;whiteSpace=wrap;html=1;" vertex="1" parent="1">
          <mxGeometry x="660" y="320" width="90" height="20" as="geometry" />
        </mxCell>
        <mxCell id="jRCfXozxXcHgCGn9272L-24" value="gender" style="ellipse;whiteSpace=wrap;html=1;" vertex="1" parent="1">
          <mxGeometry x="660" y="340" width="90" height="20" as="geometry" />
        </mxCell>
        <mxCell id="jRCfXozxXcHgCGn9272L-25" value="" style="endArrow=none;html=1;exitX=0.5;exitY=1;exitDx=0;exitDy=0;entryX=0.5;entryY=0;entryDx=0;entryDy=0;" edge="1" parent="1" target="jRCfXozxXcHgCGn9272L-21">
          <mxGeometry width="50" height="50" relative="1" as="geometry">
            <mxPoint x="705" y="270" as="sourcePoint" />
            <mxPoint x="650" y="440" as="targetPoint" />
          </mxGeometry>
        </mxCell>
        <mxCell id="jRCfXozxXcHgCGn9272L-26" value="" style="endArrow=none;html=1;exitX=0.5;exitY=1;exitDx=0;exitDy=0;entryX=0.5;entryY=0;entryDx=0;entryDy=0;" edge="1" parent="1" source="jRCfXozxXcHgCGn9272L-20" target="XHEEDVPZoeM0KxmqWSNA-7">
          <mxGeometry width="50" height="50" relative="1" as="geometry">
            <mxPoint x="610" y="180" as="sourcePoint" />
            <mxPoint x="660" y="410" as="targetPoint" />
          </mxGeometry>
        </mxCell>
        <mxCell id="jRCfXozxXcHgCGn9272L-30" value="&lt;span&gt;comes from&lt;/span&gt;" style="rhombus;whiteSpace=wrap;html=1;" vertex="1" parent="1">
          <mxGeometry x="134.5" y="175" width="69" height="40" as="geometry" />
        </mxCell>
        <mxCell id="jRCfXozxXcHgCGn9272L-31" value="Petko fragen ob das so &quot;einzeln&quot; ist mit Donations oder ob das dann doppelt weak ist&lt;br&gt;und wegen unterstrich" style="ellipse;shape=cloud;whiteSpace=wrap;html=1;" vertex="1" parent="1">
          <mxGeometry x="470" y="640" width="210" height="180" as="geometry" />
        </mxCell>
        <mxCell id="jRCfXozxXcHgCGn9272L-34" value="amount" style="ellipse;whiteSpace=wrap;html=1;" vertex="1" parent="1">
          <mxGeometry x="39" y="95" width="70" height="25" as="geometry" />
        </mxCell>
        <mxCell id="jRCfXozxXcHgCGn9272L-36" value="&lt;u&gt;timestamp&lt;/u&gt;" style="ellipse;whiteSpace=wrap;html=1;dashed=1;" vertex="1" parent="1">
          <mxGeometry x="37" y="120" width="74" height="30" as="geometry" />
        </mxCell>
        <mxCell id="jRCfXozxXcHgCGn9272L-37" value="goes to" style="rhombus;whiteSpace=wrap;html=1;" vertex="1" parent="1">
          <mxGeometry x="264" y="100" width="70" height="40" as="geometry" />
        </mxCell>
        <mxCell id="jRCfXozxXcHgCGn9272L-38" value="&lt;u&gt;ID&lt;/u&gt;" style="ellipse;whiteSpace=wrap;html=1;" vertex="1" parent="1">
          <mxGeometry x="240" y="220" width="90" height="20" as="geometry" />
        </mxCell>
        <mxCell id="jRCfXozxXcHgCGn9272L-39" value="iban" style="ellipse;whiteSpace=wrap;html=1;" vertex="1" parent="1">
          <mxGeometry x="240" y="240" width="90" height="20" as="geometry" />
        </mxCell>
        <mxCell id="jRCfXozxXcHgCGn9272L-40" value="first_name" style="ellipse;whiteSpace=wrap;html=1;" vertex="1" parent="1">
          <mxGeometry x="240" y="260" width="90" height="20" as="geometry" />
        </mxCell>
        <mxCell id="jRCfXozxXcHgCGn9272L-41" value="last_name" style="ellipse;whiteSpace=wrap;html=1;" vertex="1" parent="1">
          <mxGeometry x="244" y="280" width="90" height="20" as="geometry" />
        </mxCell>
        <mxCell id="jRCfXozxXcHgCGn9272L-42" value="" style="endArrow=none;html=1;exitX=1;exitY=0.5;exitDx=0;exitDy=0;entryX=0;entryY=0.5;entryDx=0;entryDy=0;" edge="1" parent="1" source="XHEEDVPZoeM0KxmqWSNA-5" target="jRCfXozxXcHgCGn9272L-39">
          <mxGeometry width="50" height="50" relative="1" as="geometry">
            <mxPoint x="239" y="280" as="sourcePoint" />
            <mxPoint x="240" y="320" as="targetPoint" />
          </mxGeometry>
        </mxCell>
        <mxCell id="jRCfXozxXcHgCGn9272L-43" value="" style="endArrow=none;html=1;exitX=1;exitY=0.5;exitDx=0;exitDy=0;entryX=0;entryY=0.5;entryDx=0;entryDy=0;" edge="1" parent="1" source="XHEEDVPZoeM0KxmqWSNA-5" target="jRCfXozxXcHgCGn9272L-38">
          <mxGeometry width="50" height="50" relative="1" as="geometry">
            <mxPoint x="230" y="280" as="sourcePoint" />
            <mxPoint x="250" y="330" as="targetPoint" />
          </mxGeometry>
        </mxCell>
        <mxCell id="jRCfXozxXcHgCGn9272L-44" value="" style="endArrow=none;html=1;exitX=0;exitY=0.5;exitDx=0;exitDy=0;entryX=1;entryY=0.5;entryDx=0;entryDy=0;" edge="1" parent="1" source="jRCfXozxXcHgCGn9272L-40" target="XHEEDVPZoeM0KxmqWSNA-5">
          <mxGeometry width="50" height="50" relative="1" as="geometry">
            <mxPoint x="249" y="290" as="sourcePoint" />
            <mxPoint x="260" y="340" as="targetPoint" />
          </mxGeometry>
        </mxCell>
        <mxCell id="jRCfXozxXcHgCGn9272L-45" value="&lt;u&gt;ID&lt;/u&gt;" style="ellipse;whiteSpace=wrap;html=1;" vertex="1" parent="1">
          <mxGeometry x="645" y="570" width="90" height="20" as="geometry" />
        </mxCell>
        <mxCell id="jRCfXozxXcHgCGn9272L-46" value="iban" style="ellipse;whiteSpace=wrap;html=1;" vertex="1" parent="1">
          <mxGeometry x="645" y="590" width="90" height="20" as="geometry" />
        </mxCell>
        <mxCell id="jRCfXozxXcHgCGn9272L-47" value="" style="endArrow=none;html=1;exitX=0.5;exitY=1;exitDx=0;exitDy=0;entryX=0.5;entryY=0;entryDx=0;entryDy=0;" edge="1" parent="1" source="AML0hCze_9C6tWHu_Mf7-8" target="jRCfXozxXcHgCGn9272L-45">
          <mxGeometry width="50" height="50" relative="1" as="geometry">
            <mxPoint x="239" y="280" as="sourcePoint" />
            <mxPoint x="254" y="300" as="targetPoint" />
          </mxGeometry>
        </mxCell>
        <mxCell id="jRCfXozxXcHgCGn9272L-48" value="birthday" style="ellipse;whiteSpace=wrap;html=1;" vertex="1" parent="1">
          <mxGeometry x="660" y="165" width="90" height="20" as="geometry" />
        </mxCell>
        <mxCell id="jRCfXozxXcHgCGn9272L-49" value="&lt;u&gt;ID&lt;/u&gt;" style="ellipse;whiteSpace=wrap;html=1;" vertex="1" parent="1">
          <mxGeometry x="660" y="85" width="90" height="20" as="geometry" />
        </mxCell>
        <mxCell id="jRCfXozxXcHgCGn9272L-50" value="first name" style="ellipse;whiteSpace=wrap;html=1;" vertex="1" parent="1">
          <mxGeometry x="660" y="105" width="90" height="20" as="geometry" />
        </mxCell>
        <mxCell id="jRCfXozxXcHgCGn9272L-51" value="last name" style="ellipse;whiteSpace=wrap;html=1;" vertex="1" parent="1">
          <mxGeometry x="660" y="125" width="90" height="20" as="geometry" />
        </mxCell>
        <mxCell id="jRCfXozxXcHgCGn9272L-52" value="gender" style="ellipse;whiteSpace=wrap;html=1;" vertex="1" parent="1">
          <mxGeometry x="660" y="145" width="90" height="20" as="geometry" />
        </mxCell>
        <mxCell id="jRCfXozxXcHgCGn9272L-53" value="" style="endArrow=none;html=1;exitX=0.5;exitY=0;exitDx=0;exitDy=0;entryX=0.5;entryY=1;entryDx=0;entryDy=0;" edge="1" parent="1" source="jRCfXozxXcHgCGn9272L-49" target="XHEEDVPZoeM0KxmqWSNA-9">
          <mxGeometry width="50" height="50" relative="1" as="geometry">
            <mxPoint x="454" y="100" as="sourcePoint" />
            <mxPoint x="484" y="80" as="targetPoint" />
          </mxGeometry>
        </mxCell>
      </root>
    </mxGraphModel>
  </diagram>
</mxfile>
